General
Complete name                    : The Public Enemy.mkv
Format                           : Matroska
File size                        : 1.66 GiB
Duration                         : 1h 20mn
Overall bit rate                 : 2 950 Kbps


Video
ID                               : 1
Format                           : AVC
Format/Info                      : Advanced Video Codec
Format profile                   : Main@L3.0
Format settings, CABAC           : Yes
Format settings, ReFrames        : 2 frames

Codec ID                         : V_MPEG4/ISO/AVC
Duration                         : 1h 20mn
Bit rate                         : 2 123 Kbps
Width                            : 720 pixels
Height                           : 574 pixels
Display aspect ratio             : 4:3
Frame rate                       : 25.000 fps
Resolution                       : 8 bits
Colorimetry                      : 4:2:0
Scan type                        : Progressive
Bits/(Pixel*Frame)               : 0.206
Stream size                      : 1.19 GiB (72%)
Writing library                  : x264 core 79


Audio #1
ID                               : 2
Format                           : AC-3
Format/Info                      : Audio Coding 3
Codec ID                         : A_AC3
Duration                         : 1h 20mn
Bit rate mode                    : Constant
Bit rate                         : 192 Kbps
Channel(s)                       : 1 channel
Channel positions                : C
Sampling rate                    : 48.0 KHz
Stream size                      : 111 MiB (7%)
Language                         : English

Audio #2
ID                               : 3
Format                           : AC-3
Format/Info                      : Audio Coding 3
Codec ID                         : A_AC3
Duration                         : 1h 20mn
Bit rate mode                    : Constant
Bit rate                         : 192 Kbps
Channel(s)                       : 1 channel
Channel positions                : C
Sampling rate                    : 48.0 KHz
Stream size                      : 111 MiB (7%)
Language                         : German

Audio #3
ID                               : 4
Format                           : AC-3
Format/Info                      : Audio Coding 3
Codec ID                         : A_AC3
Duration                         : 1h 20mn
Bit rate mode                    : Constant
Bit rate                         : 192 Kbps
Channel(s)                       : 1 channel
Channel positions                : C
Sampling rate                    : 48.0 KHz
Stream size                      : 111 MiB (7%)
Language                         : Italian

Audio #4
ID                               : Commentary!
Format                           : AC-3
Format/Info                      : Audio Coding 3
Codec ID                         : A_AC3
Duration                         : 1h 20mn
Bit rate mode                    : Constant
Bit rate                         : 192 Kbps
Channel(s)                       : 1 channel
Channel positions                : C
Sampling rate                    : 48.0 KHz
Stream size                      : 111 MiB (7%)
Language                         : English

Text #1
Language                         : English

Text #2
Language                         : Arabic

Text #3
Language                         : Bulgarian

Text #4
Language                         : Croatian

Text #5
Language                         : Czech

Text #6
Language                         : Danish

Text #7
Language                         : Dutch

Text #8
Language                         : French

Text #9
Language                         : German

Text #10
Language                         : Greek

Text #11
Language                         : Hungarian

Text #12
Language                         : Icelandic

Text #13
Language                         : Italian

Text #14
Language                         : Portuguese

Text #15
Language                         : Slovenian

Text #16
Language                         : Swedish

Text #17
Language                         : Turkish

Text #18
Language                         : English

 
http://en.wikipedia.org/wiki/The_Public_Enemy



